<svg xmlns="http://www.w3.org/2000/svg" viewBox="0 0 230.42 64.81"><defs><style>.nessus-essentials-logo{fill:#00829b;}</style></defs><title>Nessus Essentials</title><g id="Layer_2" data-name="Layer 2"><g id="Layer_1-2" data-name="Layer 1"><path class="nessus-essentials-logo" d="M96.18,15.21a7.85,7.85,0,0,1,2,5.78V39.68H91.59V22a4.74,4.74,0,0,0-.86-3.22,3.25,3.25,0,0,0-2.52-.93,5.12,5.12,0,0,0-3.09,1,11.89,11.89,0,0,0-2.67,2.9v18H75.81V13.87h5.76l.52,3.36a10.41,10.41,0,0,1,8.35-4.09A7.72,7.72,0,0,1,96.18,15.21Z"/><path class="nessus-essentials-logo" d="M126.35,28.7H109.12q.31,3.75,2.07,5.37a6.7,6.7,0,0,0,4.68,1.61,10.39,10.39,0,0,0,3.42-.56,16.8,16.8,0,0,0,3.43-1.74l2.75,3.56a16.39,16.39,0,0,1-10.17,3.47q-6.28,0-9.68-3.61t-3.4-9.86a16.75,16.75,0,0,1,1.45-7.1,11.44,11.44,0,0,1,4.2-4.92,11.77,11.77,0,0,1,6.54-1.78q5.76,0,8.93,3.44t3.17,9.58C126.51,26.49,126.45,27.33,126.35,28.7Zm-6.44-4.34q0-6.78-5.34-6.78a4.67,4.67,0,0,0-3.82,1.68,9.63,9.63,0,0,0-1.63,5.39h10.79Z"/><path class="nessus-essentials-logo" d="M149.59,16.21,147,19.87a13.51,13.51,0,0,0-6.91-2.1,5.63,5.63,0,0,0-3.06.71,2.17,2.17,0,0,0-1.09,1.88,2.28,2.28,0,0,0,.47,1.46,4.2,4.2,0,0,0,1.69,1.1,29.19,29.19,0,0,0,3.6,1.14,16.24,16.24,0,0,1,6.62,3,6.45,6.45,0,0,1,2.15,5.17,6.82,6.82,0,0,1-3.32,6,14.81,14.81,0,0,1-8.25,2.17,18.45,18.45,0,0,1-6.15-1,15.12,15.12,0,0,1-4.8-2.68l3.32-3.51a12.75,12.75,0,0,0,7.47,2.53,6.58,6.58,0,0,0,3.56-.83,2.57,2.57,0,0,0,1.32-2.29,2.89,2.89,0,0,0-.49-1.78,4.07,4.07,0,0,0-1.76-1.17,37.79,37.79,0,0,0-4-1.24,13.61,13.61,0,0,1-6.17-3,6.44,6.44,0,0,1-2-4.81,6.11,6.11,0,0,1,1.32-3.85,8.72,8.72,0,0,1,3.74-2.69,14.65,14.65,0,0,1,5.52-1A16.07,16.07,0,0,1,149.59,16.21Z"/><path class="nessus-essentials-logo" d="M173.35,16.21l-2.6,3.66a13.45,13.45,0,0,0-6.9-2.1,5.58,5.58,0,0,0-3.06.71,2.15,2.15,0,0,0-1.09,1.88,2.28,2.28,0,0,0,.46,1.46,4.35,4.35,0,0,0,1.69,1.1,29.46,29.46,0,0,0,3.61,1.14,16.3,16.3,0,0,1,6.62,3,6.48,6.48,0,0,1,2.15,5.17,6.84,6.84,0,0,1-3.32,6,14.87,14.87,0,0,1-8.26,2.17,18.49,18.49,0,0,1-6.15-1,15.12,15.12,0,0,1-4.8-2.68L155,33.24a12.71,12.71,0,0,0,7.47,2.53,6.61,6.61,0,0,0,3.56-.83,2.57,2.57,0,0,0,1.32-2.29,3,3,0,0,0-.49-1.78,4.05,4.05,0,0,0-1.77-1.17,37.45,37.45,0,0,0-4-1.24,13.71,13.71,0,0,1-6.18-3,6.48,6.48,0,0,1-2-4.81,6.11,6.11,0,0,1,1.32-3.85,8.78,8.78,0,0,1,3.74-2.69,14.67,14.67,0,0,1,5.53-1A16.11,16.11,0,0,1,173.35,16.21Z"/><path class="nessus-essentials-logo" d="M199.78,39.68H194l-.36-3.61a10,10,0,0,1-3.55,3.27,10.43,10.43,0,0,1-4.86,1.07,7.44,7.44,0,0,1-5.68-2.12,8.26,8.26,0,0,1-2-5.88V13.87h6.65V31.63a4.75,4.75,0,0,0,.8,3.12,3.23,3.23,0,0,0,2.57.93q3.16,0,5.55-3.66V13.87h6.65Z"/><path class="nessus-essentials-logo" d="M224.33,16.21l-2.6,3.66a13.45,13.45,0,0,0-6.9-2.1,5.63,5.63,0,0,0-3.06.71,2.15,2.15,0,0,0-1.09,1.88,2.28,2.28,0,0,0,.47,1.46,4.23,4.23,0,0,0,1.68,1.1,30,30,0,0,0,3.61,1.14,16.24,16.24,0,0,1,6.62,3,6.48,6.48,0,0,1,2.15,5.17,6.84,6.84,0,0,1-3.32,6,14.81,14.81,0,0,1-8.25,2.17,18.45,18.45,0,0,1-6.15-1,15.12,15.12,0,0,1-4.8-2.68L206,33.24a12.75,12.75,0,0,0,7.47,2.53,6.58,6.58,0,0,0,3.56-.83,2.57,2.57,0,0,0,1.32-2.29,2.89,2.89,0,0,0-.49-1.78,4.05,4.05,0,0,0-1.77-1.17,36.69,36.69,0,0,0-4-1.24,13.61,13.61,0,0,1-6.17-3,6.45,6.45,0,0,1-2-4.81,6.12,6.12,0,0,1,1.33-3.85,8.72,8.72,0,0,1,3.74-2.69,14.62,14.62,0,0,1,5.52-1A16.09,16.09,0,0,1,224.33,16.21Z"/><path class="nessus-essentials-logo" d="M229.5,8a1.82,1.82,0,0,1,.67.65,1.86,1.86,0,0,1,.25.94,1.81,1.81,0,0,1-.25.92,1.72,1.72,0,0,1-.66.65,2,2,0,0,1-1,.24,1.91,1.91,0,0,1-.94-.24,1.8,1.8,0,0,1-.91-1.57,1.75,1.75,0,0,1,.25-.93,1.7,1.7,0,0,1,.67-.66,1.84,1.84,0,0,1,.93-.24A1.89,1.89,0,0,1,229.5,8Zm-.23,2.81a1.24,1.24,0,0,0,.5-.49,1.6,1.6,0,0,0,.17-.73,1.58,1.58,0,0,0-.17-.74,1.29,1.29,0,0,0-.5-.51,1.43,1.43,0,0,0-.72-.18,1.38,1.38,0,0,0-.7.18,1.29,1.29,0,0,0-.5.51,1.58,1.58,0,0,0-.17.74,1.6,1.6,0,0,0,.17.73,1.28,1.28,0,0,0,.49.49,1.51,1.51,0,0,0,1.43,0Zm-.05-1.31a.7.7,0,0,1-.32.2l.52.8h-.52l-.42-.71h-.16v.71h-.45V8.58h.56c.6,0,.9.19.9.59A.52.52,0,0,1,229.22,9.49Zm-.9-.07h.21c.23,0,.34-.09.34-.26s-.12-.25-.35-.25h-.2Z"/><path class="nessus-essentials-logo" d="M83.51,49.55l-.25,1.61h-6v4.78h5.25v1.62H77.22v5h6.47v1.62H75.07V49.55Z"/><path class="nessus-essentials-logo" d="M92.34,53.05a6.67,6.67,0,0,1,1.85,1l-.88,1.23a7.32,7.32,0,0,0-1.55-.72,5,5,0,0,0-1.55-.24,2.84,2.84,0,0,0-1.6.4,1.28,1.28,0,0,0,0,2.13,6.53,6.53,0,0,0,2,.75,7.5,7.5,0,0,1,3,1.27,2.73,2.73,0,0,1,1,2.21,2.82,2.82,0,0,1-1.37,2.53,6.07,6.07,0,0,1-3.33.87A6.84,6.84,0,0,1,85.33,63l1.1-1.19a5.65,5.65,0,0,0,3.35,1.08,3.38,3.38,0,0,0,1.87-.45,1.43,1.43,0,0,0,.69-1.25,1.59,1.59,0,0,0-.25-.92,2,2,0,0,0-.86-.62,12.17,12.17,0,0,0-1.79-.56,6.14,6.14,0,0,1-2.74-1.26,2.59,2.59,0,0,1-.85-2,2.51,2.51,0,0,1,.55-1.58,3.57,3.57,0,0,1,1.54-1.1,5.75,5.75,0,0,1,2.2-.4A7.12,7.12,0,0,1,92.34,53.05Z"/><path class="nessus-essentials-logo" d="M102.8,53.05a6.67,6.67,0,0,1,1.85,1l-.88,1.23a7.32,7.32,0,0,0-1.55-.72,5,5,0,0,0-1.55-.24,2.9,2.9,0,0,0-1.61.4,1.22,1.22,0,0,0-.58,1.07A1.2,1.2,0,0,0,99,56.81a6.53,6.53,0,0,0,2,.75,7.5,7.5,0,0,1,3,1.27A2.73,2.73,0,0,1,105,61a2.82,2.82,0,0,1-1.37,2.53,6.07,6.07,0,0,1-3.33.87A6.84,6.84,0,0,1,95.79,63l1.1-1.19a5.65,5.65,0,0,0,3.35,1.08,3.4,3.4,0,0,0,1.87-.45,1.45,1.45,0,0,0,.69-1.25,1.59,1.59,0,0,0-.25-.92,2.06,2.06,0,0,0-.86-.62,12.58,12.58,0,0,0-1.79-.56,6.19,6.19,0,0,1-2.75-1.26,2.61,2.61,0,0,1-.84-2,2.51,2.51,0,0,1,.55-1.58,3.57,3.57,0,0,1,1.54-1.1,5.71,5.71,0,0,1,2.2-.4A7.12,7.12,0,0,1,102.8,53.05Z"/><path class="nessus-essentials-logo" d="M116.54,59.26h-7.6a4.17,4.17,0,0,0,1,2.72,3,3,0,0,0,2.21.87,5.29,5.29,0,0,0,1.58-.23,6.67,6.67,0,0,0,1.52-.75l.9,1.17a6.8,6.8,0,0,1-4.16,1.4,5,5,0,0,1-3.87-1.53,6,6,0,0,1-1.39-4.2,7.55,7.55,0,0,1,.59-3.1A4.94,4.94,0,0,1,109,53.5a5.1,5.1,0,0,1,6.28.7,6,6,0,0,1,1.26,4.06C116.58,58.59,116.57,58.92,116.54,59.26Zm-2-1.57a3.93,3.93,0,0,0-.71-2.53,2.52,2.52,0,0,0-2.1-.88q-2.55,0-2.78,3.53h5.59Z"/><path class="nessus-essentials-logo" d="M127.37,53.65a3.38,3.38,0,0,1,.91,2.51v8H126.2V56.43a2.43,2.43,0,0,0-.47-1.68,1.91,1.91,0,0,0-1.41-.49,2.82,2.82,0,0,0-1.67.51,5.58,5.58,0,0,0-1.36,1.47v7.95h-2.08V53H121l.18,1.66a4.6,4.6,0,0,1,1.57-1.41,4.29,4.29,0,0,1,2.07-.51A3.45,3.45,0,0,1,127.37,53.65Z"/><path class="nessus-essentials-logo" d="M138,63.68a4.77,4.77,0,0,1-2.67.76,3.28,3.28,0,0,1-2.36-.81,3.14,3.14,0,0,1-.85-2.37V54.5h-2.08V53h2.08V50.46l2.08-.24V53h2.83l-.23,1.51h-2.6v6.67a2,2,0,0,0,.33,1.27,1.36,1.36,0,0,0,1.1.39,3.57,3.57,0,0,0,1.58-.45Z"/><path class="nessus-essentials-logo" d="M141.94,48a1.28,1.28,0,0,1,.41,1,1.25,1.25,0,0,1-.41.95,1.55,1.55,0,0,1-1.06.37,1.5,1.5,0,0,1-1-.37,1.21,1.21,0,0,1-.41-.95,1.25,1.25,0,0,1,.41-1,1.46,1.46,0,0,1,1-.38A1.51,1.51,0,0,1,141.94,48Zm0,5v11.2h-2.08V53Z"/><path class="nessus-essentials-logo" d="M153.68,62.59a1.54,1.54,0,0,0,.75.49L154,64.44a3.36,3.36,0,0,1-1.49-.48,2.27,2.27,0,0,1-.84-1.19,4.07,4.07,0,0,1-3.55,1.67,4,4,0,0,1-2.78-.93,3.44,3.44,0,0,1,.35-5.19,6.78,6.78,0,0,1,3.88-1h1.83v-.83a2.08,2.08,0,0,0-.61-1.7,2.89,2.89,0,0,0-1.88-.51,11.34,11.34,0,0,0-3.21.59l-.52-1.42a12.71,12.71,0,0,1,4.12-.77,4.49,4.49,0,0,1,3.14,1,3.57,3.57,0,0,1,1,2.75v5.13A1.65,1.65,0,0,0,153.68,62.59Zm-2.33-1.35V58.66h-1.56c-2.2,0-3.3.77-3.3,2.3a2,2,0,0,0,.52,1.51,2.12,2.12,0,0,0,1.54.51A3.12,3.12,0,0,0,151.35,61.24Z"/><path class="nessus-essentials-logo" d="M157.43,63.8a2.42,2.42,0,0,1-.67-1.82V48.48l2.08-.23V61.94a1.13,1.13,0,0,0,.17.68.69.69,0,0,0,.58.21,2,2,0,0,0,.76-.13l.55,1.36a3.52,3.52,0,0,1-1.65.38A2.5,2.5,0,0,1,157.43,63.8Z"/><path class="nessus-essentials-logo" d="M169,53.05a6.59,6.59,0,0,1,1.86,1L170,55.24a7.32,7.32,0,0,0-1.55-.72,4.87,4.87,0,0,0-1.54-.24,2.88,2.88,0,0,0-1.61.4,1.23,1.23,0,0,0-.59,1.07,1.21,1.21,0,0,0,.56,1.06,6.42,6.42,0,0,0,2,.75,7.45,7.45,0,0,1,3,1.27,2.7,2.7,0,0,1,1,2.21,2.81,2.81,0,0,1-1.36,2.53,6.13,6.13,0,0,1-3.34.87A6.84,6.84,0,0,1,162,63l1.11-1.19a5.65,5.65,0,0,0,3.35,1.08,3.37,3.37,0,0,0,1.86-.45,1.43,1.43,0,0,0,.69-1.25,1.52,1.52,0,0,0-.25-.92,1.93,1.93,0,0,0-.86-.62,12,12,0,0,0-1.78-.56,6.19,6.19,0,0,1-2.75-1.26,2.59,2.59,0,0,1-.85-2,2.52,2.52,0,0,1,.56-1.58,3.6,3.6,0,0,1,1.53-1.1,5.76,5.76,0,0,1,2.21-.4A7.1,7.1,0,0,1,169,53.05Z"/><path class="nessus-essentials-logo" d="M64.73,39.4c-.18-.66-.84-3.11-1.46-5.43L58.35,15.63c-.62-2.32-1.27-4.77-1.46-5.44A3.17,3.17,0,0,0,56,8.78a3.12,3.12,0,0,0-1.42-.86L49.19,6.47,30.84,1.55,25.4.09a3.4,3.4,0,0,0-3.09.83L.91,22.31A3.48,3.48,0,0,0,0,25.11H0l.15.59h0L6.46,49.19c.62,2.32,1.28,4.77,1.46,5.43A3.29,3.29,0,0,0,8.77,56a3.34,3.34,0,0,0,1.42.86l4.66,1.25L34,63.27l4.54,1.22.91.24a3.08,3.08,0,0,0,.75.08,3.47,3.47,0,0,0,2.34-.91l4-4L59.92,46.49l4-4A3.44,3.44,0,0,0,64.73,39.4ZM2.38,23.76l21.4-21.4a1.54,1.54,0,0,1,1.09-.28L54.1,9.92a1.09,1.09,0,0,1,.48.32,1.17,1.17,0,0,1,.32.49c.18.67.84,3.11,1.46,5.43l5.79,21.61c.28,1,.49,1.83.59,2.2a1.48,1.48,0,0,1-.3,1.08L41,62.46a1.48,1.48,0,0,1-1.09.27l-.76-.2-4.67-1.25L10.71,54.9a1.21,1.21,0,0,1-.48-.31,1.35,1.35,0,0,1-.32-.5l-1.08-4L3.54,30.31C3,28.25,2.41,26.1,2.16,25.17h0l-.13-.38A1.57,1.57,0,0,1,2.38,23.76Z"/></g></g></svg>